<?xml version="1.0" ?><!DOCTYPE svg  PUBLIC '-//W3C//DTD SVG 1.1//EN'  'http://www.w3.org/Graphics/SVG/1.1/DTD/svg11.dtd'><svg height="2048px" style="shape-rendering:geometricPrecision; text-rendering:geometricPrecision; image-rendering:optimizeQuality; fill-rule:evenodd; clip-rule:evenodd" viewBox="0 0 2048 2048" width="2048px" xml:space="preserve" xmlns="http://www.w3.org/2000/svg" xmlns:xlink="http://www.w3.org/1999/xlink"><defs><style type="text/css">
   <![CDATA[
    .fil1 {fill:none}
    .fil0 {fill:#EB008A}
   ]]>
  </style></defs><g id="Layer_x0020_1"><g id="_305708080"><path class="fil0" d="M444.407 879.749c-104.055,0 -188.407,84.3532 -188.407,188.408 0,104.055 84.352,188.407 188.407,188.407 104.055,0 188.407,-84.352 188.407,-188.407 0,-104.055 -84.352,-188.408 -188.407,-188.408zm0 101.21c-48.1583,0 -87.1973,39.039 -87.1973,87.1985 0,48.1583 39.039,87.1973 87.1973,87.1973 48.1583,0 87.1973,-39.039 87.1973,-87.1973 0,-48.1595 -39.039,-87.1985 -87.1973,-87.1985z" id="_305708224"/><path class="fil0" d="M673.301 1242.55l104.323 0 0 -214.879c0,-29.1189 23.8217,-52.9418 52.9406,-52.9418l14.015 0 0 -98.0954 -20.2406 0c-83.0729,0 -151.038,67.9666 -151.038,151.038l0 214.878z" id="_305708560"/><path class="fil0" d="M1085.84 1038.99c61.3973,14.1945 107.526,69.4938 107.526,135.045l0 60.7288c0,2.08819 -0.0496063,4.16575 -0.142913,6.23032l-97.9548 0 0 -37.3748c0,-54.8103 -44.8418,-99.6509 -99.652,-99.6509l-4.67126 0 0 135.465 -99.6544 0 0 -445.329 99.6544 0 0 212.544 98.0977 -123.789 118.337 0 -122.157 154.151c-13.5295,0 -9.50079,-0.355512 0.616536,1.97953z" id="_305708896"/><path class="fil0" d="M1348.72 881.451l0 207.184c0,34.1788 27.9662,62.1414 62.1414,62.1414l8.3126 0c34.1752,0 62.1414,-27.9662 62.1414,-62.1414l0 -207.184 95.817 0 0 217.769c0,83.5749 -68.3776,151.952 -151.952,151.952l-20.3244 0c-83.5749,0 -151.952,-68.3776 -151.952,-151.952l0 -217.769 95.817 0z" id="_305707768"/><path class="fil0" d="M1626.5 791.434l100.657 0 0 90.0178 63.8776 0 0 100.657 -63.8776 0 0 92.9068c0,38.1071 28.252,69.9367 64.8461,75.5753l0 97.6796 -0.966142 0c-90.4902,0 -164.537,-74.041 -164.537,-164.537l0 -292.299z" id="_305707984"/></g></g><rect class="fil1" height="2048" width="2048"/></svg>